<?xml version="1.0" encoding="UTF-8" standalone="no"?>
<!-- Created with Inkscape (http://www.inkscape.org/) -->

<svg
   xmlns:dc="http://purl.org/dc/elements/1.1/"
   xmlns:cc="http://creativecommons.org/ns#"
   xmlns:rdf="http://www.w3.org/1999/02/22-rdf-syntax-ns#"
   xmlns:svg="http://www.w3.org/2000/svg"
   xmlns="http://www.w3.org/2000/svg"
   xmlns:sodipodi="http://sodipodi.sourceforge.net/DTD/sodipodi-0.dtd"
   xmlns:inkscape="http://www.inkscape.org/namespaces/inkscape"
   width="744.09448819"
   height="1052.3622047"
   id="svg3022"
   version="1.1"
   inkscape:version="0.48.3 r9882"
   sodipodi:docname="cobra.svg"
   inkscape:export-filename="/home/joilnen/joi_cobrinha/assets/cobra.png"
   inkscape:export-xdpi="51.080002"
   inkscape:export-ydpi="51.080002">
  <defs
     id="defs3024" />
  <sodipodi:namedview
     id="base"
     pagecolor="#ffffff"
     bordercolor="#666666"
     borderopacity="1.0"
     inkscape:pageopacity="0.0"
     inkscape:pageshadow="2"
     inkscape:zoom="0.88"
     inkscape:cx="159.7561"
     inkscape:cy="562.944"
     inkscape:document-units="px"
     inkscape:current-layer="layer1"
     showgrid="false"
     inkscape:window-width="1362"
     inkscape:window-height="749"
     inkscape:window-x="0"
     inkscape:window-y="15"
     inkscape:window-maximized="0" />
  <metadata
     id="metadata3027">
    <rdf:RDF>
      <cc:Work
         rdf:about="">
        <dc:format>image/svg+xml</dc:format>
        <dc:type
           rdf:resource="http://purl.org/dc/dcmitype/StillImage" />
        <dc:title></dc:title>
      </cc:Work>
    </rdf:RDF>
  </metadata>
  <g
     inkscape:label="Layer 1"
     inkscape:groupmode="layer"
     id="layer1">
    <rect
       style="fill:#caff2a;fill-opacity:1;fill-rule:evenodd;stroke:#3daae1;stroke-width:6.22598648;stroke-linecap:butt;stroke-linejoin:round;stroke-miterlimit:4;stroke-opacity:1;stroke-dasharray:none"
       id="rect2985-3-7-2-0"
       width="158.51222"
       height="154.04585"
       x="466.64188"
       y="436.98013"
       rx="42.56131"
       ry="44.325947" />
    <path
       style="fill:#f60000;fill-opacity:1;fill-rule:evenodd;stroke:#d20011;stroke-width:1.77499998;stroke-linecap:butt;stroke-linejoin:round;stroke-miterlimit:4;stroke-opacity:1"
       d="m 179.87805,756.73424 c 5.74268,0 10.36585,0.81585 10.36585,1.82925 0,0 7.97872,72.45724 7.97872,84.15937 0,1.0134 -12.60189,-34.87289 -18.34457,-34.87289 -5.74269,0 -18.97846,35.88115 -18.8765,34.87289 l 8.51064,-84.15937 c 0.10196,-1.00826 4.62317,-1.82925 10.36586,-1.82925 z"
       id="rect3850"
       inkscape:connector-curvature="0"
       sodipodi:nodetypes="sssssss" />
    <path
       style="fill:#26291d;fill-opacity:0.8495575;fill-rule:evenodd;stroke:#899195;stroke-width:7.08640051;stroke-linecap:butt;stroke-linejoin:round;stroke-miterlimit:4;stroke-opacity:1"
       d="m 140.09243,521.69385 83.22977,0 c 26.74047,0 48.26799,22.58311 48.26799,50.63477 l 0,33.23793 c 0,28.05167 -42.25923,155.51281 -68.9997,155.51281 l -45.42489,0 c -26.74047,0 -65.34116,-127.46114 -65.34116,-155.51281 l 0,-33.23793 c 0,-28.05166 21.52752,-50.63477 48.26799,-50.63477 z"
       id="rect2985-3-7-2-3"
       inkscape:connector-curvature="0"
       sodipodi:nodetypes="sssssssss" />
    <path
       sodipodi:type="arc"
       style="fill:#0dd000;fill-opacity:1;fill-rule:evenodd;stroke:#253128;stroke-width:7.17500019;stroke-linecap:butt;stroke-linejoin:round;stroke-miterlimit:4;stroke-opacity:1;stroke-dasharray:none"
       id="path3853"
       sodipodi:cx="228.97728"
       sodipodi:cy="635.31671"
       sodipodi:rx="16.477272"
       sodipodi:ry="22.727272"
       d="m 245.45455,635.31671 a 16.477272,22.727272 0 1 1 -32.95454,0 16.477272,22.727272 0 1 1 32.95454,0 z"
       transform="translate(-4.5454545,-4.5454545)" />
    <path
       sodipodi:type="arc"
       style="fill:#0dd000;fill-opacity:1;fill-rule:evenodd;stroke:#253128;stroke-width:7.17500019;stroke-linecap:butt;stroke-linejoin:round;stroke-miterlimit:4;stroke-opacity:1;stroke-dasharray:none"
       id="path3853-6"
       sodipodi:cx="228.97728"
       sodipodi:cy="635.31671"
       sodipodi:rx="16.477272"
       sodipodi:ry="22.727272"
       d="m 245.45455,635.31671 a 16.477272,22.727272 0 1 1 -32.95454,0 16.477272,22.727272 0 1 1 32.95454,0 z"
       transform="translate(-85.522734,-4.5454545)" />
    <path
       style="fill:#617060;fill-opacity:1;fill-rule:evenodd;stroke:#637f6a;stroke-width:0;stroke-linecap:butt;stroke-linejoin:round;stroke-miterlimit:4;stroke-opacity:1;stroke-dasharray:none"
       id="path3875"
       d="m 125.61571,573.3386 c 1.34283,-2.20536 3.20317,-3.90036 5.12049,-5.58905 6.42175,-4.83907 13.2438,-9.91433 21.10713,-11.89837 2.47388,-0.39345 4.94473,-0.47415 7.4157,-0.89107 3.10478,-0.45463 6.24299,-0.5433 9.37458,-0.62409 2.82731,-0.14178 5.59483,-0.13835 8.38091,0.34712 2.66088,0.22879 5.24446,0.79397 7.86116,1.29268 2.38227,0.19657 4.68293,0.72684 7.02357,1.17511 2.22387,0.39329 4.4845,0.46132 6.7368,0.50689 0,0 -13.58353,9.80623 -13.58353,9.80623 l 0,0 c -2.31113,-0.0931 -4.62463,-0.2525 -6.89209,-0.7385 -2.32355,-0.48109 -4.66442,-0.78539 -7.00146,-1.18873 -2.59247,-0.53461 -5.19799,-0.91333 -7.82641,-1.22901 -2.69329,-0.35757 -5.40834,-0.19989 -8.11831,-0.15928 -3.11658,0.11024 -6.23446,0.30209 -9.31187,0.83513 -2.43568,0.34944 -4.93557,0.34984 -7.29651,1.11032 -5.36834,2.02209 -12.49151,6.90958 10.98991,-6.71467 2.93397,-1.70233 -6.35589,3.27826 -3.40762,2.08199 -1.80497,1.59751 -3.96913,3.00949 -5.0792,5.20068 0,0 -15.49325,6.67662 -15.49325,6.67662 z"
       inkscape:connector-curvature="0" />
    <path
       style="fill:#617060;fill-opacity:1;fill-rule:evenodd;stroke:#637f6a;stroke-width:0;stroke-linecap:butt;stroke-linejoin:round;stroke-miterlimit:4;stroke-opacity:1;stroke-dasharray:none"
       id="path3877"
       d="m 197.27668,543.99494 c 2.67002,0.0695 5.34192,0.0607 8.01276,0.0627 2.79191,0.17298 5.4028,1.18147 8.11991,1.74814 2.51089,0.54487 4.65696,1.93995 7.00007,2.90679 2.23064,0.63847 4.42461,1.37857 6.71528,1.78461 2.49492,0.34966 5.02193,0.35607 7.53639,0.37359 2.47941,-0.005 4.95874,-0.003 7.43813,-10e-4 2.145,0.19 4.21006,-0.29135 6.30928,-0.63397 0,0 -13.37867,10.04426 -13.37867,10.04426 l 0,0 c -2.13834,0.32682 -4.27341,0.51273 -6.44062,0.40909 -2.48903,0.0106 -4.97824,0.0359 -7.46712,-0.0117 -2.58715,-0.0577 -5.19647,-0.10455 -7.7425,-0.61198 -2.33826,-0.54134 -4.65416,-1.23439 -6.8965,-2.08769 -2.22285,-1.02767 -4.38914,-2.17944 -6.82334,-2.64719 -2.58794,-0.64392 -5.14337,-1.51637 -7.84644,-1.4817 -2.72836,0.002 -5.45765,-0.005 -8.18525,0.0627 0,0 13.64862,-9.9163 13.64862,-9.9163 z"
       inkscape:connector-curvature="0" />
    <path
       style="fill:#617060;fill-opacity:1;fill-rule:evenodd;stroke:#637f6a;stroke-width:0;stroke-linecap:butt;stroke-linejoin:round;stroke-miterlimit:4;stroke-opacity:1;stroke-dasharray:none"
       id="path3879"
       d="m 222.39847,563.3234 c 2.93871,0.60229 5.93361,0.85902 8.92373,1.03437 3.76533,0.52909 7.47553,1.08182 11.08365,2.31561 3.47057,1.42916 6.59708,3.47997 10.16054,4.67967 1.88893,0.49015 3.63388,0.25334 5.4813,-0.19455 0,0 -13.3739,10.06426 -13.3739,10.06426 l 0,0 c -1.99351,0.20186 -3.94094,0.0711 -5.85476,-0.5939 -3.47098,-1.34276 -6.58532,-3.37837 -10.07851,-4.66848 -3.56301,-1.09292 -7.25106,-1.48411 -10.94294,-1.91477 -3.01275,-0.22913 -6.00373,-0.69004 -9.01945,-0.82646 0,0 13.62034,-9.89575 13.62034,-9.89575 z"
       inkscape:connector-curvature="0" />
    <path
       style="fill:#617060;fill-opacity:1;fill-rule:evenodd;stroke:#637f6a;stroke-width:0;stroke-linecap:butt;stroke-linejoin:round;stroke-miterlimit:4;stroke-opacity:1;stroke-dasharray:none"
       id="path3881"
       d="m 190.35793,574.40814 c 2.57884,-0.38768 5.17705,-0.59851 7.77994,-0.73106 2.96405,-0.26346 5.68773,0.93558 8.37831,1.9936 2.17315,1.23371 4.5065,1.93434 6.96652,2.26931 1.88428,0.32738 3.66855,0.12913 5.51852,-0.22579 0,0 -13.40023,10.05011 -13.40023,10.05011 l 0,0 c -1.95164,0.22656 -3.89846,0.14513 -5.83419,-0.21435 -2.49746,-0.52104 -4.82998,-1.44455 -7.11513,-2.57552 -2.57528,-1.00205 -5.16798,-1.78264 -7.97027,-1.39873 -2.60762,0.176 -5.22014,0.41957 -7.77095,1.01411 0,0 13.44748,-10.18168 13.44748,-10.18168 z"
       inkscape:connector-curvature="0" />
    <path
       style="fill:#617060;fill-opacity:1;fill-rule:evenodd;stroke:#637f6a;stroke-width:0;stroke-linecap:butt;stroke-linejoin:round;stroke-miterlimit:4;stroke-opacity:1;stroke-dasharray:none"
       id="path3883"
       d="m 159.67611,576.68087 c 2.93089,-1.08895 5.55297,-2.84599 8.3479,-4.23546 -33.23365,19.10215 1.91207,-1.15049 2.8824,-1.70103 0.61284,-0.34772 1.86877,-0.85422 2.56499,-1.04283 0.82829,-0.22438 1.87367,-0.33968 2.72007,-0.45552 2.68514,-0.2952 5.39,-0.24012 8.08641,-0.23648 1.73021,0.25972 3.45272,0.55962 5.18682,0.79314 0,0 -13.6729,9.63828 -13.6729,9.63828 l 0,0 c -1.66489,-0.25515 -3.32824,-0.58249 -5.01703,-0.6183 -2.64236,0.0101 -5.30325,0.0163 -7.91322,0.48113 -1.29667,0.3002 -2.47814,0.65866 -3.67556,1.25188 -0.41358,0.20489 -1.62081,0.88343 -1.22213,0.65088 7.91468,-4.61654 29.55198,-17.03223 -2.85591,1.59311 -2.8721,1.52228 -5.66352,3.35949 -8.87932,4.06288 0,0 13.44748,-10.18168 13.44748,-10.18168 z"
       inkscape:connector-curvature="0" />
    <path
       style="fill:#617060;fill-opacity:1;fill-rule:evenodd;stroke:#637f6a;stroke-width:0;stroke-linecap:butt;stroke-linejoin:round;stroke-miterlimit:4;stroke-opacity:1;stroke-dasharray:none"
       id="path3885"
       d="m 107.47821,588.02609 c 6.70631,-4.80263 13.55909,-10.35656 21.82241,-11.69684 3.09604,-0.45522 6.22798,-0.46515 9.34954,-0.49024 2.53334,-0.13626 5.11579,0.26134 7.61671,-0.20996 1.12752,-0.41007 2.21728,-0.84084 3.28641,-1.38427 0,0 -13.11746,10.3771 -13.11746,10.3771 l 0,0 c -1.17411,0.43039 -2.34408,0.88116 -3.6024,0.99787 -2.55047,0.1081 -5.10389,-0.0107 -7.65607,0.0291 -3.05113,0.0385 -6.12329,0.11077 -9.1204,0.74347 -5.94746,1.64342 -11.84496,6.32396 10.21615,-6.63959 0.70165,-0.41231 -1.18299,0.52611 -2.29312,1.34288 -0.28991,0.21329 -0.5502,0.46415 -0.82531,0.69622 0,0 -15.67646,6.2343 -15.67646,6.2343 z"
       inkscape:connector-curvature="0" />
    <path
       style="fill:#617060;fill-opacity:1;fill-rule:evenodd;stroke:#637f6a;stroke-width:0;stroke-linecap:butt;stroke-linejoin:round;stroke-miterlimit:4;stroke-opacity:1;stroke-dasharray:none"
       id="path3887"
       d="m 140.35793,540.31723 c 2.36867,-1.1165 4.81342,-1.94961 7.3899,-2.43775 3.58412,-0.53469 7.21369,-0.58146 10.82981,-0.6217 4.89659,-0.18817 9.63219,1.20393 14.37638,2.20051 3.3838,0.53395 6.89602,1.40976 10.33297,0.9477 0,0 -13.47496,9.89325 -13.47496,9.89325 l 0,0 c -3.49434,-0.1054 -6.95976,-0.686 -10.36305,-1.46671 -4.69143,-1.06852 -9.40024,-2.19344 -14.25622,-1.8149 -3.57385,0.0831 -7.17692,0.16143 -10.6811,0.94402 -2.58951,0.706 -5.01185,1.84664 -7.60121,2.53726 0,0 13.44748,-10.18168 13.44748,-10.18168 z"
       inkscape:connector-curvature="0" />
    <path
       style="fill:#617060;fill-opacity:1;fill-rule:evenodd;stroke:#637f6a;stroke-width:0;stroke-linecap:butt;stroke-linejoin:round;stroke-miterlimit:4;stroke-opacity:1;stroke-dasharray:none"
       id="path3889"
       d="m 116.49429,555.08996 c 3.32064,-0.46531 6.60798,-1.5368 9.68733,-2.86286 0.54494,-0.29001 2.16946,-1.17865 1.63483,-0.87003 -4.2129,2.432 -8.44282,4.83443 -12.67052,7.24062 -0.47663,0.27128 0.94138,-0.56306 1.41718,-0.83579 2.38184,-1.36528 12.08473,-7.85236 18.01798,-10.0498 2.90182,-0.3449 5.88732,0.30358 8.8014,0.55997 3.04745,0.24523 6.10499,0.29664 9.16069,0.31832 0,0 -13.50827,9.78443 -13.50827,9.78443 l 0,0 c -3.06774,-0.0674 -6.13746,-0.15461 -9.19359,-0.44749 -2.77338,-0.25096 -5.73428,-0.94067 -8.39211,0.16912 -5.10708,2.56704 -12.21684,6.93769 10.62333,-6.30255 0.48387,-0.28049 -0.9624,0.57019 -1.44716,0.84917 -16.16311,9.30198 -10.24005,6.5858 -17.45596,9.81129 -3.29384,1.20194 -6.66967,2.19031 -10.1226,2.81728 0,0 13.44747,-10.18168 13.44747,-10.18168 z"
       inkscape:connector-curvature="0" />
    <path
       style="fill:#617060;fill-opacity:1;fill-rule:evenodd;stroke:#637f6a;stroke-width:0;stroke-linecap:butt;stroke-linejoin:round;stroke-miterlimit:4;stroke-opacity:1;stroke-dasharray:none"
       id="path3891"
       d="m 221.23543,535.17661 c 2.77135,0.59549 5.61081,0.73132 8.43453,0.84408 3.11912,0.0889 6.20737,-0.0555 9.28498,0.49906 1.92632,0.4151 3.68164,1.24854 5.64522,1.56818 0.99886,0.13862 2.00663,0.17782 3.01271,0.22224 0,0 -13.62972,9.77237 -13.62972,9.77237 l 0,0 c -1.06078,-0.0859 -2.12403,-0.16827 -3.16664,-0.39572 -1.87995,-0.45137 -3.63961,-1.28484 -5.56373,-1.54726 -3.00134,-0.43721 -6.04116,-0.24568 -9.0635,-0.41885 -2.94585,-0.15288 -5.88686,-0.36622 -8.7927,-0.9011 0,0 13.83885,-9.643 13.83885,-9.643 z"
       inkscape:connector-curvature="0" />
    <path
       style="fill:#617060;fill-opacity:1;fill-rule:evenodd;stroke:#637f6a;stroke-width:0;stroke-linecap:butt;stroke-linejoin:round;stroke-miterlimit:4;stroke-opacity:1;stroke-dasharray:none"
       id="path3893"
       d="m 196.14032,533.76767 c 2.95589,0.0789 5.91347,0.083 8.87026,0.0758 0.4449,-0.2011 0.8898,-0.40221 1.3347,-0.60331 0,0 -13.20309,10.15583 -13.20309,10.15583 l 0,0 c -0.52389,0.0707 -1.04778,0.1415 -1.57167,0.21226 -3.02633,-0.007 -6.05333,-8.6e-4 -9.07882,0.0758 0,0 13.64862,-9.9163 13.64862,-9.9163 z"
       inkscape:connector-curvature="0" />
    <path
       style="fill:#617060;fill-opacity:1;fill-rule:evenodd;stroke:#637f6a;stroke-width:0;stroke-linecap:butt;stroke-linejoin:round;stroke-miterlimit:4;stroke-opacity:1;stroke-dasharray:none"
       id="path3895"
       d="m 246.2621,586.05067 c 2.49427,0.0699 4.99039,0.0635 7.4855,0.0633 0,0 -13.44613,9.76919 -13.44613,9.76919 l 0,0 c -2.5532,-2e-4 -5.10728,-0.005 -7.6597,0.0633 0,0 13.62033,-9.89575 13.62033,-9.89575 z"
       inkscape:connector-curvature="0" />
    <path
       style="fill:#617060;fill-opacity:1;fill-rule:evenodd;stroke:#637f6a;stroke-width:0;stroke-linecap:butt;stroke-linejoin:round;stroke-miterlimit:4;stroke-opacity:1;stroke-dasharray:none"
       id="path3897"
       d="m 149.54941,679.22221 c 2.56865,0.0758 5.13923,0.0539 7.70872,0.0485 2.58357,0.0266 5.16798,-0.15013 7.7309,0.21032 2.64556,0.60122 5.02952,1.89339 7.63827,2.60806 0,0 -13.82356,9.42946 -13.82356,9.42946 l 0,0 c -2.45136,-0.82532 -4.78837,-2.04577 -7.38495,-2.36696 -2.5569,-0.10605 -5.11705,-0.0301 -7.67584,-0.0615 -2.61399,-0.006 -5.22894,-0.0257 -7.84216,0.0485 0,0 13.64862,-9.91631 13.64862,-9.91631 z"
       inkscape:connector-curvature="0" />
    <path
       style="fill:#617060;fill-opacity:1;fill-rule:evenodd;stroke:#637f6a;stroke-width:0;stroke-linecap:butt;stroke-linejoin:round;stroke-miterlimit:4;stroke-opacity:1;stroke-dasharray:none"
       id="path3899"
       d="m 198.31247,680.08996 c 2.73441,-0.35819 5.43593,-0.98363 8.11679,-1.63686 2.98295,-0.76222 6.02561,-1.20409 9.0969,-1.3605 2.77122,-0.17406 5.54294,0.44717 8.04014,1.63186 0.34076,0.16038 0.68153,0.32076 1.0223,0.48113 0,0 -13.97646,9.25211 -13.97646,9.25211 l 0,0 c -0.32674,-0.15036 -0.65347,-0.30072 -0.98021,-0.45109 -2.41475,-0.9197 -4.94508,-1.30378 -7.52738,-1.01319 -2.99895,0.28397 -5.9677,0.77047 -8.88647,1.52905 -2.77756,0.62124 -5.5513,1.24827 -8.35308,1.74917 0,0 13.44747,-10.18168 13.44747,-10.18168 z"
       inkscape:connector-curvature="0" />
    <path
       style="fill:#617060;fill-opacity:1;fill-rule:evenodd;stroke:#637f6a;stroke-width:0;stroke-linecap:butt;stroke-linejoin:round;stroke-miterlimit:4;stroke-opacity:1;stroke-dasharray:none"
       id="path3901"
       d="m 184.77668,665.58585 c 3.0031,0.09 6.00833,0.0823 9.01248,0.0734 2.78589,0.0765 5.59482,-0.2434 8.35575,0.18148 1.87699,0.55183 0.94766,0.27698 2.78805,0.82439 0,0 -13.76225,9.43403 -13.76225,9.43403 l 0,0 c -1.75558,-0.46348 -0.87727,-0.27144 -2.63408,-0.58008 -2.72897,-0.12515 -5.46285,-0.0484 -8.19396,-0.0904 -3.07155,-0.009 -6.14403,-0.0139 -9.21461,0.0734 0,0 13.64862,-9.9163 13.64862,-9.9163 z"
       inkscape:connector-curvature="0" />
    <path
       style="fill:#617060;fill-opacity:1;fill-rule:evenodd;stroke:#637f6a;stroke-width:0;stroke-linecap:butt;stroke-linejoin:round;stroke-miterlimit:4;stroke-opacity:1;stroke-dasharray:none"
       id="path3903"
       d="m 181.36759,692.85858 c 2.77892,-0.0337 5.51033,0.0941 8.26215,0.4709 1.58262,0.22619 3.17536,0.35704 4.76819,0.48287 0,0 -13.52836,9.65575 -13.52836,9.65575 l 0,0 c -1.61405,-0.14505 -3.22511,-0.31023 -4.83266,-0.517 -2.76563,-0.30677 -5.53912,-0.26214 -8.31794,-0.17622 0,0 13.64862,-9.9163 13.64862,-9.9163 z"
       inkscape:connector-curvature="0" />
    <path
       style="fill:#617060;fill-opacity:1;fill-rule:evenodd;stroke:#637f6a;stroke-width:0;stroke-linecap:butt;stroke-linejoin:round;stroke-miterlimit:4;stroke-opacity:1;stroke-dasharray:none"
       id="path3905"
       d="m 212.04941,703.08585 c 2.62911,-0.12326 5.18747,0.28588 7.77709,0.66166 1.43846,0.0598 2.77542,0.52097 4.11765,0.99097 0,0 -13.77195,9.39086 -13.77195,9.39086 l 0,0 c -1.31813,-0.34628 -2.63767,-0.6267 -3.99762,-0.75964 -2.5828,-0.3723 -5.16271,-0.54548 -7.77379,-0.36755 0,0 13.64862,-9.9163 13.64862,-9.9163 z"
       inkscape:connector-curvature="0" />
    <path
       style="fill:#617060;fill-opacity:1;fill-rule:evenodd;stroke:#637f6a;stroke-width:0;stroke-linecap:butt;stroke-linejoin:round;stroke-miterlimit:4;stroke-opacity:1;stroke-dasharray:none"
       id="path3907"
       d="m 174.54941,703.08238 c 3.40135,-0.10279 6.63014,0.19963 9.86963,1.25419 3.24196,0.98739 6.27056,2.54736 9.50621,3.54033 2.88711,1.07626 5.90489,1.64299 8.96132,1.93146 2.52919,0.34987 4.59669,-0.62588 6.64107,-1.97972 0,0 -12.98894,10.50899 -12.98894,10.50899 l 0,0 c -2.32748,1.14261 -4.68695,1.58252 -7.27877,1.12627 -3.10473,-0.4455 -6.13794,-1.20782 -9.10093,-2.24315 -3.16025,-1.12107 -6.19166,-2.59498 -9.422,-3.52806 -3.236,-0.83863 -6.50671,-0.90781 -9.83621,-0.69401 0,0 13.64862,-9.9163 13.64862,-9.9163 z"
       inkscape:connector-curvature="0" />
    <path
       style="fill:#617060;fill-opacity:1;fill-rule:evenodd;stroke:#637f6a;stroke-width:0;stroke-linecap:butt;stroke-linejoin:round;stroke-miterlimit:4;stroke-opacity:1;stroke-dasharray:none"
       id="path3909"
       d="m 153.99429,703.06348 c 3.08837,0.0182 6.12049,0.46693 9.1756,0.86908 2.96584,0.39854 5.95787,0.50895 8.94639,0.56584 1.23993,0.0185 2.48,0.0185 3.72003,0.0194 0,0 -13.54648,9.82952 -13.54648,9.82952 l 0,0 c -1.23786,-0.0141 -2.47583,-0.0281 -3.71307,-0.0732 -3.00169,-0.1213 -6.00424,-0.31337 -8.97846,-0.75316 -2.98807,-0.40262 -6.05519,-0.83413 -9.05148,-0.27579 0,0 13.44747,-10.18169 13.44747,-10.18169 z"
       inkscape:connector-curvature="0" />
    <path
       style="fill:#617060;fill-opacity:1;fill-rule:evenodd;stroke:#637f6a;stroke-width:0;stroke-linecap:butt;stroke-linejoin:round;stroke-miterlimit:4;stroke-opacity:1;stroke-dasharray:none"
       id="path3911"
       d="m 179.09486,678.08585 c 2.77422,0.0746 5.55019,0.0601 8.32523,0.0732 3.21194,-0.20182 6.31632,0.24442 9.37698,1.1743 1.80325,0.7208 3.52365,1.58896 5.03893,2.80809 0,0 -14.20579,8.96785 -14.20579,8.96785 l 0,0 c -1.41942,-1.01484 -2.96307,-1.814 -4.63299,-2.33851 -2.9518,-0.83042 -5.96708,-0.95739 -9.02426,-0.84182 -2.84222,0.0132 -5.68526,0 -8.52672,0.0732 0,0 13.64862,-9.9163 13.64862,-9.9163 z"
       inkscape:connector-curvature="0" />
    <path
       style="fill:#617060;fill-opacity:1;fill-rule:evenodd;stroke:#637f6a;stroke-width:0;stroke-linecap:butt;stroke-linejoin:round;stroke-miterlimit:4;stroke-opacity:1;stroke-dasharray:none"
       id="path3913"
       d="m 217.73123,692.85858 c 2.75435,-0.0751 5.44094,0.18706 8.112,0.86069 2.8257,0.74843 5.56327,1.80058 8.35853,2.66134 1.78544,0.55068 3.54025,0.85337 5.36825,0.30723 0.45296,-0.13533 1.73033,-0.75279 1.32085,-0.51652 -4.34994,2.50991 -8.7699,4.89647 -13.15485,7.34471 1.55177,-1.11514 0.83503,-0.50426 2.15687,-1.82478 0,0 15.35379,-6.50321 15.35379,-6.50321 l 0,0 c -1.19304,1.62772 -0.54091,0.85722 -1.95823,2.30994 -10.44394,5.92197 -13.25351,11.21573 -22.86489,8.26365 -2.73967,-0.88436 -5.4492,-1.89381 -8.25494,-2.54637 -2.67801,-0.48058 -5.36799,-0.60298 -8.08601,-0.44038 0,0 13.64863,-9.9163 13.64863,-9.9163 z"
       inkscape:connector-curvature="0" />
    <path
       style="fill:#617060;fill-opacity:1;fill-rule:evenodd;stroke:#637f6a;stroke-width:0;stroke-linecap:butt;stroke-linejoin:round;stroke-miterlimit:4;stroke-opacity:1;stroke-dasharray:none"
       id="path3915"
       d="m 229.27295,669.53374 c 2.8477,0.87325 5.67434,1.8082 8.49219,2.78252 2.40887,0.84457 4.93488,1.11327 7.46674,1.23564 0,0 -13.61535,9.74631 -13.61535,9.74631 l 0,0 c -2.61058,-0.24083 -5.18538,-0.70998 -7.64269,-1.6581 -2.86775,-1.02685 -5.78898,-1.85465 -8.70568,-2.72395 0,0 14.00479,-9.38242 14.00479,-9.38242 z"
       inkscape:connector-curvature="0" />
    <path
       style="fill:#617060;fill-opacity:1;fill-rule:evenodd;stroke:#637f6a;stroke-width:0;stroke-linecap:butt;stroke-linejoin:round;stroke-miterlimit:4;stroke-opacity:1;stroke-dasharray:none"
       id="path3917"
       d="m 142.73123,668.99494 c 3.53121,0.12267 7.06576,0.11059 10.59859,0.0944 2.52325,-0.10215 5.07063,0.1698 7.56642,-0.25379 0,0 -13.41575,9.9633 -13.41575,9.9633 l 0,0 c -2.51181,0.11206 -5.02587,0.0132 -7.53955,0.0181 -3.61946,-0.0168 -7.24034,-0.024 -10.85834,0.0944 0,0 13.64863,-9.9163 13.64863,-9.9163 z"
       inkscape:connector-curvature="0" />
    <path
       style="fill:#617060;fill-opacity:1;fill-rule:evenodd;stroke:#637f6a;stroke-width:0;stroke-linecap:butt;stroke-linejoin:round;stroke-miterlimit:4;stroke-opacity:1;stroke-dasharray:none"
       id="path3919"
       d="m 140.65988,687.43693 c 3.08004,0.56628 6.21765,0.72426 9.34129,0.84761 2.29259,-0.0125 4.47262,-0.0247 6.65519,0.7192 0,0 -13.79127,9.46351 -13.79127,9.46351 l 0,0 c -2.10545,-0.42671 -4.24502,-0.32985 -6.38298,-0.46494 -3.20893,-0.19931 -6.41416,-0.4714 -9.60176,-0.89756 0,0 13.77953,-9.66782 13.77953,-9.66782 z"
       inkscape:connector-curvature="0" />
    <path
       style="fill:#617060;fill-opacity:1;fill-rule:evenodd;stroke:#637f6a;stroke-width:0;stroke-linecap:butt;stroke-linejoin:round;stroke-miterlimit:4;stroke-opacity:1;stroke-dasharray:none"
       id="path3921"
       d="m 152.02352,703.06348 c 2.52579,0.63887 4.8904,1.66043 7.2801,2.67601 0,0 -13.84166,9.22809 -13.84166,9.22809 l 0,0 c -2.32637,-0.99499 -4.69004,-1.90417 -7.21797,-2.23629 0,0 13.77953,-9.66781 13.77953,-9.66781 z"
       inkscape:connector-curvature="0" />
    <path
       style="fill:#617060;fill-opacity:1;fill-rule:evenodd;stroke:#637f6a;stroke-width:0;stroke-linecap:butt;stroke-linejoin:round;stroke-miterlimit:4;stroke-opacity:1;stroke-dasharray:none"
       id="path3923"
       d="m 173.41305,728.06348 c 2.7424,0.63244 5.5317,1.14725 8.21529,2.00671 2.22078,0.83626 4.54254,1.19591 6.89573,1.36274 2.23962,-0.0599 4.38329,0.57848 6.58932,0.87787 0.38298,0.0392 0.76597,0.0784 1.14895,0.11754 0,0 -13.66065,9.68234 -13.66065,9.68234 l 0,0 c -0.39295,-0.0522 -0.78591,-0.10446 -1.17887,-0.15669 -2.17721,-0.34716 -4.33712,-0.76249 -6.55017,-0.80185 -2.40206,-0.29081 -4.7394,-0.84438 -7.01528,-1.67736 -2.63386,-0.73223 -5.34962,-1.43402 -8.09295,-1.49499 0,0 13.64863,-9.91631 13.64863,-9.91631 z"
       inkscape:connector-curvature="0" />
    <path
       style="fill:#617060;fill-opacity:1;fill-rule:evenodd;stroke:#637f6a;stroke-width:0;stroke-linecap:butt;stroke-linejoin:round;stroke-miterlimit:4;stroke-opacity:1;stroke-dasharray:none"
       id="path3925"
       d="m 207.50396,703.06398 c 2.56865,0.0758 5.13923,0.0539 7.70871,0.0485 1.88251,0.01 0.93749,0.007 2.83507,0.008 0,0 -13.4924,9.80281 -13.4924,9.80281 l 0,0 c -1.90714,0.001 -0.95453,-10e-4 -2.85784,0.008 -2.61399,-0.006 -5.22895,-0.0257 -7.84217,0.0485 0,0 13.64863,-9.91631 13.64863,-9.91631 z"
       inkscape:connector-curvature="0" />
    <path
       style="fill:#617060;fill-opacity:1;fill-rule:evenodd;stroke:#637f6a;stroke-width:0;stroke-linecap:butt;stroke-linejoin:round;stroke-miterlimit:4;stroke-opacity:1;stroke-dasharray:none"
       id="path3927"
       d="m 182.50396,703.06348 c 2.75262,0.11799 5.5099,-0.0815 8.24642,0.25991 2.66632,0.34528 5.30453,0.65489 7.92174,1.26278 1.5799,0.31828 0.77335,0.17831 2.42039,0.41557 0,0 -13.67198,9.60641 -13.67198,9.60641 l 0,0 c -1.71891,-0.29964 -0.88694,-0.13533 -2.49708,-0.4869 -2.54984,-0.54489 -5.15155,-0.78908 -7.73445,-1.12952 -2.7748,-0.1466 -5.55649,-0.0567 -8.33367,-0.0119 0,0 13.64863,-9.9163 13.64863,-9.9163 z"
       inkscape:connector-curvature="0" />
    <path
       style="fill:#617060;fill-opacity:1;fill-rule:evenodd;stroke:#637f6a;stroke-width:0;stroke-linecap:butt;stroke-linejoin:round;stroke-miterlimit:4;stroke-opacity:1;stroke-dasharray:none"
       id="path3929"
       d="m 226.82214,703.06349 c 1.67512,0.0582 0.76973,0.0328 2.71635,0.0698 0,0 -13.45661,9.7768 -13.45661,9.7768 l 0,0 c -2.06503,0.0373 -1.09562,0.0123 -2.90837,0.0697 0,0 13.64863,-9.91631 13.64863,-9.91631 z"
       inkscape:connector-curvature="0" />
    <path
       style="fill:#617060;fill-opacity:1;fill-rule:evenodd;stroke:#637f6a;stroke-width:0;stroke-linecap:butt;stroke-linejoin:round;stroke-miterlimit:4;stroke-opacity:1;stroke-dasharray:none"
       id="path3931"
       d="m 206.36759,693.99494 c 2.87452,0.10097 5.7522,0.0671 8.62801,0.0566 0.45519,-0.002 0.91037,-0.004 1.36555,-0.005 0,0 -13.50739,9.81369 -13.50739,9.81369 l 0,0 c -0.45036,-0.002 -0.90072,-0.004 -1.35108,-0.005 -2.92776,-0.0108 -5.85713,-0.0419 -8.78371,0.0566 0,0 13.64862,-9.9163 13.64862,-9.9163 z"
       inkscape:connector-curvature="0" />
    <path
       style="fill:#617060;fill-opacity:1;fill-rule:evenodd;stroke:#637f6a;stroke-width:0;stroke-linecap:butt;stroke-linejoin:round;stroke-miterlimit:4;stroke-opacity:1;stroke-dasharray:none"
       id="path3933"
       d="m 190.65988,657.89148 c 2.81429,0.53243 5.6782,0.71504 8.53474,0.8406 0.4225,0.0819 0.84499,0.16369 1.26748,0.24554 0,0 -13.69064,9.62124 -13.69064,9.62124 l 0,0 c -0.3766,-0.045 -0.75319,-0.09 -1.12979,-0.135 -2.93078,-0.19833 -5.85117,-0.50255 -8.76132,-0.90457 0,0 13.77953,-9.66781 13.77953,-9.66781 z"
       inkscape:connector-curvature="0" />
    <path
       style="fill:#617060;fill-opacity:1;fill-rule:evenodd;stroke:#637f6a;stroke-width:0;stroke-linecap:butt;stroke-linejoin:round;stroke-miterlimit:4;stroke-opacity:1;stroke-dasharray:none"
       id="path3935"
       d="m 183.64032,629.22221 c 2.56865,0.0758 5.13923,0.0539 7.70872,0.0485 1.75876,0.27026 0.89133,0.12971 2.60245,0.42063 0,0 -13.6743,9.62521 -13.6743,9.62521 l 0,0 c -1.62369,-0.21303 -0.80924,-0.13757 -2.44333,-0.22649 -2.61399,-0.006 -5.22894,-0.0257 -7.84216,0.0485 0,0 13.64862,-9.91631 13.64862,-9.91631 z"
       inkscape:connector-curvature="0" />
    <path
       style="fill:#617060;fill-opacity:1;fill-rule:evenodd;stroke:#637f6a;stroke-width:0;stroke-linecap:butt;stroke-linejoin:round;stroke-miterlimit:4;stroke-opacity:1;stroke-dasharray:none"
       id="path3937"
       d="m 184.77668,642.85858 c 2.60579,-0.3299 5.02363,-1.39172 7.6554,-1.50147 2.22874,-0.17143 4.72616,0.82931 6.72287,-0.41159 -14.03661,7.90889 -18.10692,10.9213 -13.27519,7.38562 0,0 15.44127,-6.71939 15.44127,-6.71939 l 0,0 c -2.47181,6.31873 -0.0735,0.74005 -15.45158,9.64946 -2.27838,0.24073 -4.56365,-0.21313 -6.8459,0.0572 -2.63417,0.47223 -5.19585,1.39006 -7.89549,1.45651 0,0 13.64862,-9.9163 13.64862,-9.9163 z"
       inkscape:connector-curvature="0" />
    <path
       style="fill:#617060;fill-opacity:1;fill-rule:evenodd;stroke:#637f6a;stroke-width:0;stroke-linecap:butt;stroke-linejoin:round;stroke-miterlimit:4;stroke-opacity:1;stroke-dasharray:none"
       id="path3939"
       d="m 181.16874,621.88032 c 2.54523,-0.84061 5.18986,-1.25859 7.84837,-1.52333 2.35741,-0.3619 4.81422,0.12267 7.12881,-0.4435 4.99479,-1.44908 16.8405,-9.30079 -12.1227,7.13685 0,0 15.64045,-6.23417 15.64045,-6.23417 l 0,0 c -8.03564,4.69425 -10.23445,8.22143 -16.95625,9.14721 -2.36316,0.10108 -4.73598,0.0669 -7.08708,0.36993 -2.63358,0.36238 -5.25545,0.89105 -7.70252,1.96702 0,0 13.25092,-10.42001 13.25092,-10.42001 z"
       inkscape:connector-curvature="0" />
    <path
       style="fill:#617060;fill-opacity:1;fill-rule:evenodd;stroke:#637f6a;stroke-width:0;stroke-linecap:butt;stroke-linejoin:round;stroke-miterlimit:4;stroke-opacity:1;stroke-dasharray:none"
       id="path3941"
       d="m 183.64032,608.76767 c 2.55106,-0.003 5.13177,0.25508 7.6573,-0.15596 1.5487,-0.56052 3.38129,-0.22038 4.92729,-0.70723 0.3403,-0.10717 0.61501,-0.36182 0.92252,-0.54273 0,0 -13.2064,10.32358 -13.2064,10.32358 l 0,0 c -2.00429,0.37708 -4.03449,0.61406 -6.05575,0.88274 -2.62945,0.12415 -5.26271,0.0175 -7.89358,0.1159 0,0 13.64862,-9.9163 13.64862,-9.9163 z"
       inkscape:connector-curvature="0" />
    <path
       style="fill:#617060;fill-opacity:1;fill-rule:evenodd;stroke:#637f6a;stroke-width:0;stroke-linecap:butt;stroke-linejoin:round;stroke-miterlimit:4;stroke-opacity:1;stroke-dasharray:none"
       id="path3943"
       d="m 173.41305,597.40403 c 2.56865,0.0758 5.13923,0.0539 7.70871,0.0485 2.98965,0.0211 5.97936,0.009 8.96902,0.0187 2.29476,-0.17412 4.74139,0.44065 6.89643,-0.45591 0,0 -13.31207,10.15011 -13.31207,10.15011 l 0,0 c -2.34433,0.19484 -4.69744,0.0528 -7.04812,0.0878 -3.0068,0.0101 -6.01365,-0.002 -9.02043,0.0187 -2.61399,-0.006 -5.22895,-0.0257 -7.84217,0.0485 0,0 13.64863,-9.91631 13.64863,-9.91631 z"
       inkscape:connector-curvature="0" />
    <path
       style="fill:#617060;fill-opacity:1;fill-rule:evenodd;stroke:#637f6a;stroke-width:0;stroke-linecap:butt;stroke-linejoin:round;stroke-miterlimit:4;stroke-opacity:1;stroke-dasharray:none"
       id="path3945"
       d="m 214.32214,592.85858 c 1.21463,0.0473 2.43042,0.046 3.64572,0.0517 0,0 -13.50619,9.81282 -13.50619,9.81282 l 0,0 c -1.26279,0.006 -2.52597,0.006 -3.78816,0.0517 0,0 13.64863,-9.9163 13.64863,-9.9163 z"
       inkscape:connector-curvature="0" />
    <path
       style="fill:#617060;fill-opacity:1;fill-rule:evenodd;stroke:#637f6a;stroke-width:0;stroke-linecap:butt;stroke-linejoin:round;stroke-miterlimit:4;stroke-opacity:1;stroke-dasharray:none"
       id="path3947"
       d="m 159.77668,591.72221 c 2.56865,0.0758 5.13924,0.0539 7.70872,0.0485 3.05521,-0.0606 6.07402,-0.009 9.09977,0.42122 1.98371,0.30353 3.98401,0.45202 5.9854,0.5729 0,0 -13.536,9.69195 -13.536,9.69195 l 0,0 c -2.02749,-0.15864 -4.051,-0.34879 -6.06444,-0.64081 -2.99174,-0.3556 -5.99213,-0.23323 -8.9999,-0.22591 -2.614,-0.006 -5.22895,-0.0257 -7.84217,0.0485 0,0 13.64862,-9.91631 13.64862,-9.91631 z"
       inkscape:connector-curvature="0" />
    <path
       style="fill:#617060;fill-opacity:1;fill-rule:evenodd;stroke:#637f6a;stroke-width:0;stroke-linecap:butt;stroke-linejoin:round;stroke-miterlimit:4;stroke-opacity:1;stroke-dasharray:none"
       id="path3949"
       d="m 217.73123,587.17676 c 2.79094,0.0813 5.5837,0.0696 8.37554,0.0613 2.06148,0.006 1.03229,0.005 3.08754,0.004 0,0 -13.47015,9.78664 -13.47015,9.78664 l 0,0 c -2.05599,-0.002 -1.02358,-0.003 -3.09721,0.004 -2.84813,-0.008 -5.69704,-0.0178 -8.54435,0.0613 0,0 13.64863,-9.9163 13.64863,-9.9163 z"
       inkscape:connector-curvature="0" />
    <path
       style="fill:#617060;fill-opacity:1;fill-rule:evenodd;stroke:#637f6a;stroke-width:0;stroke-linecap:butt;stroke-linejoin:round;stroke-miterlimit:4;stroke-opacity:1;stroke-dasharray:none"
       id="path3951"
       d="m 114.41725,606.76752 c 1.18867,0.2716 2.40111,0.4052 3.60978,0.5485 0,0 -13.62453,9.64314 -13.62453,9.64314 l 0,0 c -1.27708,-0.16648 -2.55334,-0.3381 -3.8241,-0.54864 0,0 13.83885,-9.643 13.83885,-9.643 z"
       inkscape:connector-curvature="0" />
    <path
       style="fill:#617060;fill-opacity:1;fill-rule:evenodd;stroke:#637f6a;stroke-width:0;stroke-linecap:butt;stroke-linejoin:round;stroke-miterlimit:4;stroke-opacity:1;stroke-dasharray:none"
       id="path3953"
       d="m 108.40514,628.91124 c -1.16286,-0.0972 -2.33742,0.0517 -3.39078,0.58742 -0.3458,0.17588 -1.30303,0.84094 -0.96463,0.65122 4.50813,-2.52729 8.98467,-5.1105 13.47701,-7.66576 0,0 -15.55548,6.25513 -15.55548,6.25513 l 0,0 c 7.91209,-4.71404 11.96868,-9.69895 20.0825,-9.74431 0,0 -13.64862,9.9163 -13.64862,9.9163 z"
       inkscape:connector-curvature="0" />
    <path
       sodipodi:type="arc"
       style="fill:#000000;fill-opacity:1;fill-rule:evenodd;stroke:#637f6a;stroke-width:0;stroke-linecap:butt;stroke-linejoin:round;stroke-miterlimit:4;stroke-opacity:1;stroke-dasharray:none"
       id="path3957"
       sodipodi:cx="205.11363"
       sodipodi:cy="719.40765"
       sodipodi:rx="5.1136365"
       sodipodi:ry="10.227273"
       d="m 210.22727,719.40765 a 5.1136365,10.227273 0 1 1 -10.22727,0 5.1136365,10.227273 0 1 1 10.22727,0 z"
       transform="matrix(0.55555557,0,0,0.66666668,84.888885,230.27655)" />
    <path
       sodipodi:type="arc"
       style="fill:#000000;fill-opacity:1;fill-rule:evenodd;stroke:#637f6a;stroke-width:0;stroke-linecap:butt;stroke-linejoin:round;stroke-miterlimit:4;stroke-opacity:1;stroke-dasharray:none"
       id="path3957-0"
       sodipodi:cx="205.11363"
       sodipodi:cy="719.40765"
       sodipodi:rx="5.1136365"
       sodipodi:ry="10.227273"
       d="m 210.22727,719.40765 a 5.1136365,10.227273 0 1 1 -10.22727,0 5.1136365,10.227273 0 1 1 10.22727,0 z"
       transform="matrix(0.55555557,0,0,0.66666668,53.638885,230.27655)" />
    <g
       id="g4224">
      <rect
         ry="50.634773"
         rx="48.267986"
         y="263.65771"
         x="32.416756"
         height="175.97089"
         width="179.76575"
         id="rect2985-3-7-2"
         style="fill:#26291d;fill-opacity:0.8495575;fill-rule:evenodd;stroke:#899195;stroke-width:7.08640051;stroke-linecap:butt;stroke-linejoin:round;stroke-miterlimit:4;stroke-opacity:1;stroke-dasharray:none" />
      <path
         inkscape:connector-curvature="0"
         d="m 66.973547,388.72526 c 3.42305,-0.62319 6.771663,-1.50781 10.211072,-2.05943 4.302201,-0.38787 7.94229,1.45016 11.576555,3.38493 2.99103,1.75573 6.327429,2.75277 9.607093,3.8623 3.020073,1.12107 6.288713,1.09532 9.429283,1.64603 1.73319,0.35983 3.48998,0.56008 5.25352,0.71504 0,0 -12.98167,8.82572 -12.98167,8.82572 l 0,0 c -1.773211,-0.20305 -3.535033,-0.45997 -5.285265,-0.80329 -3.213321,-0.45365 -6.485625,-0.7482 -9.53804,-1.89147 -3.342383,-1.10551 -6.62643,-2.32013 -9.635897,-4.13513 -3.492316,-1.76448 -7.016486,-3.21574 -11.053669,-2.49615 -3.457209,0.62372 -6.897407,1.41156 -10.265317,2.37882 0,0 12.682335,-9.42737 12.682335,-9.42737 z"
         id="path4090"
         style="fill:#617060;fill-opacity:1;fill-rule:evenodd;stroke:#637f6a;stroke-width:0;stroke-linecap:butt;stroke-linejoin:round;stroke-miterlimit:4;stroke-opacity:1;stroke-dasharray:none" />
      <path
         inkscape:connector-curvature="0"
         d="m 134.27031,381.89352 c 2.94256,0.045 5.73956,1.0047 8.53714,1.77212 3.78548,1.1223 7.39507,2.70184 11.08076,4.08285 2.74191,0.84468 5.51706,1.5609 8.14578,2.70348 2.91014,1.55925 5.68131,3.25344 8.76445,4.50915 3.72382,1.19482 7.69677,1.47036 11.57922,1.90326 2.41768,0.17623 4.97889,0.54327 7.38428,-0.009 0.59219,-0.13598 1.13071,-0.43329 1.69606,-0.64993 0,0 -12.51118,9.23213 -12.51118,9.23213 l 0,0 c -3.08833,0.57715 -6.18495,0.45371 -9.3057,0.0817 -4.05686,-0.38932 -8.20445,-0.67234 -12.01284,-2.18205 -3.03824,-1.33599 -5.83623,-3.03731 -8.82624,-4.44499 -2.64806,-1.00828 -5.40663,-1.71548 -8.05242,-2.73061 -3.60339,-1.44797 -7.19681,-2.96336 -10.97621,-3.94785 -2.78507,-0.73654 -5.61116,-1.46133 -8.53159,-1.2632 0,0 13.02849,-9.05699 13.02849,-9.05699 z"
         id="path4092"
         style="fill:#617060;fill-opacity:1;fill-rule:evenodd;stroke:#637f6a;stroke-width:0;stroke-linecap:butt;stroke-linejoin:round;stroke-miterlimit:4;stroke-opacity:1;stroke-dasharray:none" />
      <path
         inkscape:connector-curvature="0"
         d="m 104.01404,369.44822 c 3.78892,0.14046 7.58132,0.0939 11.37201,0.0879 3.76735,0.0716 7.54863,-0.18859 11.30286,0.15496 3.34066,0.5164 6.34974,2.01447 9.37239,3.38056 2.41765,1.38906 5.3918,2.57397 8.2402,2.09071 5.21173,-2.87658 1.25672,-0.68786 -11.97823,6.37524 0,0 14.8115,-5.77731 14.8115,-5.77731 l 0,0 c -14.85685,8.45501 -8.93591,7.5616 -15.68807,8.4096 -3.06193,-0.24856 -6.01602,-1.16746 -8.63015,-2.72987 -2.85294,-1.32838 -5.784,-2.63572 -8.97988,-2.94829 -3.72986,-0.16751 -7.46609,-0.0503 -11.199,-0.0933 -3.875106,-0.007 -7.751629,-0.0487 -11.625118,0.0879 0,0 13.001488,-9.03822 13.001488,-9.03822 z"
         id="path4094"
         style="fill:#617060;fill-opacity:1;fill-rule:evenodd;stroke:#637f6a;stroke-width:0;stroke-linecap:butt;stroke-linejoin:round;stroke-miterlimit:4;stroke-opacity:1;stroke-dasharray:none" />
      <path
         inkscape:connector-curvature="0"
         d="m 111.60718,345.57675 c 4.04301,0.13305 8.08964,0.11294 12.13447,0.11412 4.59105,-0.0654 9.15073,-0.13268 13.70088,0.50358 4.08631,0.57442 8.17373,1.23459 12.0594,2.60252 2.63999,1.24745 5.28204,2.47315 7.93024,3.70021 1.44545,0.9515 3.02428,1.48341 4.71039,1.87458 0,0 -13.11147,8.60624 -13.11147,8.60624 l 0,0 c -1.72902,-0.51098 -3.35325,-1.17413 -4.90636,-2.07318 -2.59307,-1.17846 -5.07165,-2.56916 -7.71941,-3.63662 -3.80281,-1.22142 -7.76971,-1.86559 -11.72997,-2.43159 -4.52408,-0.46287 -9.06259,-0.30745 -13.60685,-0.33576 -4.15433,9.1e-4 -8.31016,-0.0151 -12.462818,0.11412 0,0 13.001498,-9.03822 13.001498,-9.03822 z"
         id="path4096"
         style="fill:#617060;fill-opacity:1;fill-rule:evenodd;stroke:#637f6a;stroke-width:0;stroke-linecap:butt;stroke-linejoin:round;stroke-miterlimit:4;stroke-opacity:1;stroke-dasharray:none" />
      <path
         inkscape:connector-curvature="0"
         d="m 142.94818,328.96112 c 3.15228,0.0977 6.3074,0.0802 9.46102,0.086 3.09197,-0.0148 6.18385,-0.0261 9.27584,-0.0303 2.52553,-0.21945 4.7688,0.22973 6.91327,1.51035 2.02221,1.51951 4.43397,2.20721 6.98286,2.20471 0.31377,-0.16123 0.62756,-0.32246 0.94133,-0.48369 0,0 -12.69035,9.2993 -12.69035,9.2993 l 0,0 c -0.40519,0.0163 -0.8104,0.0326 -1.21559,0.0489 -2.69579,-0.39468 -5.20442,-1.17724 -7.44606,-2.7056 -2.02657,-0.94792 -4.1197,-1.03779 -6.35376,-0.92833 -3.06294,-0.005 -6.12578,-0.0153 -9.18871,-0.0303 -3.2361,0.006 -6.47347,-0.01 -9.70835,0.086 0,0 13.0285,-9.05699 13.0285,-9.05699 z"
         id="path4098"
         style="fill:#617060;fill-opacity:1;fill-rule:evenodd;stroke:#637f6a;stroke-width:0;stroke-linecap:butt;stroke-linejoin:round;stroke-miterlimit:4;stroke-opacity:1;stroke-dasharray:none" />
      <path
         inkscape:connector-curvature="0"
         d="m 138.64551,310.06302 c 3.25845,-0.14854 6.45045,-0.75512 9.67277,-1.18284 3.20501,-0.45211 6.4437,-0.53535 9.67677,-0.59791 1.92941,-0.0411 3.85919,-0.0329 5.78888,-0.0343 0,0 -12.86503,8.9452 -12.86503,8.9452 l 0,0 c -1.91341,0.002 -3.8269,0.0127 -5.74007,0.043 -3.18377,0.083 -6.36728,0.2544 -9.51916,0.7166 -3.28181,0.48668 -6.57498,0.86896 -9.85568,1.35111 0,0 12.84152,-9.24084 12.84152,-9.24084 z"
         id="path4100"
         style="fill:#617060;fill-opacity:1;fill-rule:evenodd;stroke:#637f6a;stroke-width:0;stroke-linecap:butt;stroke-linejoin:round;stroke-miterlimit:4;stroke-opacity:1;stroke-dasharray:none" />
      <path
         inkscape:connector-curvature="0"
         d="m 162.70786,290.24424 c 2.37406,1.50814 4.93461,2.42697 7.70286,3.0033 2.83067,0.45978 5.70906,0.48824 8.57214,0.50871 0.30335,-0.0121 0.60671,-0.0243 0.91007,-0.0365 0,0 -12.99457,9.01583 -12.99457,9.01583 l 0,0 c -0.26578,-0.0172 -0.53156,-0.0343 -0.79734,-0.0515 -2.93802,-0.0602 -5.89006,-0.16916 -8.76672,-0.80106 -2.86719,-0.7552 -5.53399,-1.88481 -8.12393,-3.28279 0,0 13.49749,-8.35601 13.49749,-8.35601 z"
         id="path4102"
         style="fill:#617060;fill-opacity:1;fill-rule:evenodd;stroke:#637f6a;stroke-width:0;stroke-linecap:butt;stroke-linejoin:round;stroke-miterlimit:4;stroke-opacity:1;stroke-dasharray:none" />
      <path
         inkscape:connector-curvature="0"
         d="m 72.344535,296.54119 c 3.642736,-0.25729 7.232536,-0.90179 10.865866,-1.26315 3.255129,-0.32254 6.52419,-0.46631 9.794759,-0.52621 2.158237,0.16936 4.146332,0.91953 6.20496,1.47821 0,0 -13.223006,8.64234 -13.223006,8.64234 l 0,0 c -1.909433,-0.57307 -3.837908,-1.1248 -5.860978,-1.13198 -3.183836,0.0563 -6.368271,0.18106 -9.534985,0.51899 -3.706392,0.43142 -7.410165,0.94694 -11.083103,1.58117 0,0 12.836487,-9.29937 12.836487,-9.29937 z"
         id="path4104"
         style="fill:#617060;fill-opacity:1;fill-rule:evenodd;stroke:#637f6a;stroke-width:0;stroke-linecap:butt;stroke-linejoin:round;stroke-miterlimit:4;stroke-opacity:1;stroke-dasharray:none" />
      <path
         inkscape:connector-curvature="0"
         d="m 81.118405,317.54433 c 2.910254,-0.45519 5.85287,-0.67255 8.795725,-0.81256 3.162826,0.008 6.358088,-0.39779 9.503045,9.2e-4 2.662225,0.5483 5.408945,0.48047 8.073575,0.96126 1.9798,0.47078 4.00215,0.66894 6.03145,0.80525 0,0 -12.95282,8.85453 -12.95282,8.85453 l 0,0 c -2.061265,-0.17535 -4.09931,-0.46711 -6.121211,-0.89404 -2.662523,-0.33378 -5.350743,-0.47345 -8.005233,-0.8832 -3.092426,-0.15011 -6.195879,2e-4 -9.286181,0.13763 -3.033973,0.20955 -6.043512,0.58919 -9.066849,0.88703 0,0 13.028499,-9.057 13.028499,-9.057 z"
         id="path4106"
         style="fill:#617060;fill-opacity:1;fill-rule:evenodd;stroke:#637f6a;stroke-width:0;stroke-linecap:butt;stroke-linejoin:round;stroke-miterlimit:4;stroke-opacity:1;stroke-dasharray:none" />
      <path
         inkscape:connector-curvature="0"
         d="m 68.281692,347.22133 c 5.430925,-5.73295 12.435873,-10.00947 20.20556,-12.49175 2.348118,-0.60976 4.788703,-0.57601 7.199887,-0.58207 2.455678,0.008 4.911461,0.0111 7.367021,0.0362 2.8339,-0.17194 5.60704,0.24517 8.40734,0.57394 1.20752,0.0973 4.21447,0.25909 5.32487,-0.1648 0.35985,-0.13737 0.60426,-0.46413 0.90639,-0.69619 0,0 -12.49547,9.51158 -12.49547,9.51158 l 0,0 c -2.20739,0.46551 -4.46137,0.47209 -6.697004,0.13165 -2.778321,-0.3223 -5.549592,-0.49042 -8.35074,-0.39448 -2.448642,0.002 -4.897253,-0.0451 -7.345847,-0.0123 -2.320645,0.0637 -4.675607,0.16051 -6.845135,1.03937 -5.339516,2.52701 -2.133282,1.04014 11.338469,-6.44777 0.406924,-0.22617 -0.812931,0.45645 -1.194898,0.71948 -0.779868,0.537 -1.547912,1.20983 -2.183963,1.89833 -0.294911,0.31923 -0.548058,0.67168 -0.822087,1.00751 0,0 -14.814393,5.87134 -14.814393,5.87134 z"
         id="path4108"
         style="fill:#617060;fill-opacity:1;fill-rule:evenodd;stroke:#637f6a;stroke-width:0;stroke-linecap:butt;stroke-linejoin:round;stroke-miterlimit:4;stroke-opacity:1;stroke-dasharray:none" />
      <path
         inkscape:connector-curvature="0"
         d="m 57.34212,363.90851 c 7.499614,-3.80392 14.706976,-8.48426 22.562667,-11.71385 2.606732,-1.06095 5.213801,-1.32907 7.770896,-0.0901 1.567219,0.86305 3.066892,1.73546 4.793564,2.2788 0,0 -13.268914,8.54487 -13.268914,8.54487 l 0,0 c -1.670884,-0.66934 -3.190955,-1.58499 -4.830508,-2.31386 -2.37867,-0.67454 -4.671091,0.0343 -6.868207,0.99496 -6.062101,2.7395 -20.343355,10.34885 4.839379,-3.23736 0,0 -14.998877,5.53661 -14.998877,5.53661 z"
         id="path4110"
         style="fill:#617060;fill-opacity:1;fill-rule:evenodd;stroke:#637f6a;stroke-width:0;stroke-linecap:butt;stroke-linejoin:round;stroke-miterlimit:4;stroke-opacity:1;stroke-dasharray:none" />
      <path
         inkscape:connector-curvature="0"
         d="m 64.657597,373.11207 c 3.389653,-1.46808 7.020528,-2.23366 10.668068,-2.83819 3.742627,-0.77027 7.38228,-0.54273 10.984121,0.6273 2.523982,0.9484 5.191179,1.42106 7.832254,1.96107 1.874441,0.32004 0.94481,0.17795 2.78854,0.42837 0,0 -13.019725,8.75418 -13.019725,8.75418 l 0,0 c -1.862903,-0.31342 -0.923445,-0.14382 -2.818078,-0.51027 -2.678182,-0.55777 -5.359354,-1.07405 -7.909397,-2.07104 -3.453434,-0.91039 -6.877949,-0.89076 -10.384111,-0.13403 -3.718797,0.73309 -7.349391,1.73642 -10.790543,3.29966 0,0 12.648871,-9.51705 12.648871,-9.51705 z"
         id="path4112"
         style="fill:#617060;fill-opacity:1;fill-rule:evenodd;stroke:#637f6a;stroke-width:0;stroke-linecap:butt;stroke-linejoin:round;stroke-miterlimit:4;stroke-opacity:1;stroke-dasharray:none" />
      <path
         inkscape:connector-curvature="0"
         d="m 160.39175,384.66631 c 7.14597,-3.9442 13.90477,-8.51931 21.79524,-10.86087 2.64111,-0.47313 5.1292,-1.44646 7.76425,-1.93398 1.75326,-0.27254 3.53201,-0.30493 5.30377,-0.33408 0,0 -12.91487,9.03583 -12.91487,9.03583 l 0,0 c -1.71768,0.0726 -3.44144,0.17338 -5.11879,0.5636 -2.52413,0.61669 -5.03012,1.31192 -7.53969,1.97661 -6.18909,2.19961 -19.01511,9.294 5.70897,-3.98372 0,0 -14.99888,5.53661 -14.99888,5.53661 z"
         id="path4114"
         style="fill:#617060;fill-opacity:1;fill-rule:evenodd;stroke:#637f6a;stroke-width:0;stroke-linecap:butt;stroke-linejoin:round;stroke-miterlimit:4;stroke-opacity:1;stroke-dasharray:none" />
      <path
         inkscape:connector-curvature="0"
         d="m 123.40202,412.78916 c 5.27265,-6.70428 14.4567,-10.6614 23.11072,-11.31182 3.54495,-0.0808 6.27908,1.61138 9.04791,3.4672 1.87075,1.4332 3.99038,2.57159 6.25021,3.33193 2.2611,1.1314 4.6953,1.81884 7.19409,2.26263 0,0 -13.04236,8.68319 -13.04236,8.68319 l 0,0 c -2.55982,-0.55716 -5.05703,-1.32547 -7.42212,-2.42976 -2.29591,-0.95301 -4.4586,-2.15946 -6.40664,-3.67114 -2.52434,-1.72127 -5.08274,-2.96282 -8.30241,-2.63191 -1.52451,0.19586 -2.15282,0.21535 -3.64924,0.66602 -0.6534,0.19679 -2.49658,1.05599 -1.91887,0.70381 3.85426,-2.34958 7.86779,-4.45123 11.77828,-6.71413 0.41359,-0.23934 -0.90046,0.36245 -1.2854,0.64215 -0.27552,0.2002 -0.43779,0.51266 -0.6567,0.76899 0,0 -14.69747,6.23284 -14.69747,6.23284 z"
         id="path4116"
         style="fill:#617060;fill-opacity:1;fill-rule:evenodd;stroke:#637f6a;stroke-width:0;stroke-linecap:butt;stroke-linejoin:round;stroke-miterlimit:4;stroke-opacity:1;stroke-dasharray:none" />
      <path
         inkscape:connector-curvature="0"
         d="m 87.743053,412.00171 c 3.390424,-0.21371 6.711227,-0.82722 10.059046,-1.346 2.873531,-0.68352 5.539641,-0.31517 8.330561,0.40711 2.70116,0.58122 5.38525,1.2196 8.12505,1.62373 2.90312,0.37405 5.83804,0.39979 8.76225,0.42179 0.52187,2.3e-4 1.04375,4.6e-4 1.56563,6.9e-4 0,0 -12.8455,8.91656 -12.8455,8.91656 l 0,0 c -0.51787,-0.007 -1.03573,-0.0136 -1.55359,-0.0204 -2.99246,-0.0524 -6.00365,-0.0437 -8.95582,-0.5814 -2.757972,-0.4954 -5.500241,-1.08314 -8.231666,-1.69521 -2.624092,-0.58031 -5.197624,-0.51794 -7.840114,0.0177 -3.45724,0.54 -6.916883,1.08064 -10.417343,1.29361 0,0 13.001496,-9.03823 13.001496,-9.03823 z"
         id="path4118"
         style="fill:#617060;fill-opacity:1;fill-rule:evenodd;stroke:#637f6a;stroke-width:0;stroke-linecap:butt;stroke-linejoin:round;stroke-miterlimit:4;stroke-opacity:1;stroke-dasharray:none" />
      <path
         inkscape:connector-curvature="0"
         d="m 116.91459,291.59707 c 2.45194,0.0692 4.90573,0.0492 7.35847,0.0443 2.3104,-0.007 4.6208,-0.01 6.93121,-0.0114 1.49717,-8.1e-4 0.73016,-0.004 2.30105,0.008 0,0 -12.90987,8.97453 -12.90987,8.97453 l 0,0 c -1.59622,0.0117 -0.82114,0.01 -2.32521,0.008 -2.29943,-0.002 -4.59887,-0.006 -6.89829,-0.0114 -2.49523,-0.006 -4.99137,-0.0235 -7.48586,0.0443 0,0 13.0285,-9.05699 13.0285,-9.05699 z"
         id="path4120"
         style="fill:#617060;fill-opacity:1;fill-rule:evenodd;stroke:#637f6a;stroke-width:0;stroke-linecap:butt;stroke-linejoin:round;stroke-miterlimit:4;stroke-opacity:1;stroke-dasharray:none" />
      <path
         inkscape:connector-curvature="0"
         d="m 90.784995,280.97284 c 2.253926,-1.04265 4.805819,-1.32127 7.271551,-1.54099 2.903474,-0.0648 5.748994,-0.61493 8.624634,-0.9512 2.65724,-0.44335 5.1629,-0.0416 7.62317,0.94363 2.43895,0.88242 4.91751,1.69975 7.45962,2.26513 1.8721,0.38458 3.78757,0.471 5.69361,0.56154 0,0 -12.89562,8.85049 -12.89562,8.85049 l 0,0 c -1.98278,-0.13641 -3.97696,-0.26625 -5.90543,-0.76433 -2.56342,-0.66276 -5.0838,-1.47203 -7.56016,-2.38909 -2.367194,-0.69401 -4.731009,-0.77111 -7.175836,-0.35968 -2.865495,0.35878 -5.723636,0.74873 -8.609235,0.93133 -2.523512,0.36443 -4.943659,0.992 -7.362791,1.75253 0,0 12.836487,-9.29936 12.836487,-9.29936 z"
         id="path4122"
         style="fill:#617060;fill-opacity:1;fill-rule:evenodd;stroke:#637f6a;stroke-width:0;stroke-linecap:butt;stroke-linejoin:round;stroke-miterlimit:4;stroke-opacity:1;stroke-dasharray:none" />
      <path
         inkscape:connector-curvature="0"
         d="m 157.04971,283.29396 c 2.64816,0.0681 5.29801,0.0549 7.94696,0.0669 3.62934,-0.1695 7.18832,0.32666 10.72155,1.05506 0.35779,-0.0282 0.71559,-0.0563 1.07339,-0.0845 0,0 -12.98463,8.93003 -12.98463,8.93003 l 0,0 c -0.36735,-0.0637 -0.73468,-0.12726 -1.10203,-0.19088 -3.47844,-0.69484 -6.98993,-0.94828 -10.54443,-0.78634 -2.71309,0.012 -5.42696,1e-5 -8.13931,0.0669 0,0 13.0285,-9.05701 13.0285,-9.05701 z"
         id="path4124"
         style="fill:#617060;fill-opacity:1;fill-rule:evenodd;stroke:#637f6a;stroke-width:0;stroke-linecap:butt;stroke-linejoin:round;stroke-miterlimit:4;stroke-opacity:1;stroke-dasharray:none" />
      <path
         inkscape:connector-curvature="0"
         d="m 176.5749,314.43066 c 2.45715,0.18761 4.8689,-0.37065 7.29692,-0.65872 0.42884,0.0236 0.85768,0.0471 1.28652,0.0707 0,0 -12.90694,8.97701 -12.90694,8.97701 l 0,0 c -0.38587,0.0255 -0.77173,0.0509 -1.1576,0.0764 -2.50762,0.31984 -5.00854,0.66268 -7.5474,0.59164 0,0 13.0285,-9.05699 13.0285,-9.05699 z"
         id="path4126"
         style="fill:#617060;fill-opacity:1;fill-rule:evenodd;stroke:#637f6a;stroke-width:0;stroke-linecap:butt;stroke-linejoin:round;stroke-miterlimit:4;stroke-opacity:1;stroke-dasharray:none" />
      <path
         inkscape:connector-curvature="0"
         d="m 43.959613,339.07626 c 7.250415,-3.60487 14.205668,-9.53515 22.387356,-11.39535 3.348866,-0.53539 6.75117,-0.6451 10.137167,-0.68197 0,0 -13.437161,9.80227 -13.437161,9.80227 l 0,0 c -3.317901,0.0919 -6.670767,0.17123 -9.903707,1.00397 -6.48874,1.96531 -19.072601,10.14396 6.529133,-4.79083 0,0 -15.712788,6.06191 -15.712788,6.06191 z"
         id="path4128"
         style="fill:#617060;fill-opacity:1;fill-rule:evenodd;stroke:#637f6a;stroke-width:0;stroke-linecap:butt;stroke-linejoin:round;stroke-miterlimit:4;stroke-opacity:1;stroke-dasharray:none" />
      <path
         inkscape:connector-curvature="0"
         d="m 59.676107,309.63541 c 2.890459,-0.38397 5.802835,-0.59584 8.715927,-0.70333 3.316107,-0.13018 6.635004,-0.0838 9.952672,-0.0887 2.253014,-0.008 1.144793,-0.004 3.324661,-0.0135 0,0 -13.458471,9.77724 -13.458471,9.77724 l 0,0 c -2.149352,-0.0118 -1.055621,-0.007 -3.281196,-0.0139 -3.316279,0.005 -6.633627,0.0419 -9.947257,0.18209 -2.933237,0.17901 -5.883492,0.37143 -8.753809,1.04184 0,0 13.447473,-10.18169 13.447473,-10.18169 z"
         id="path4130"
         style="fill:#617060;fill-opacity:1;fill-rule:evenodd;stroke:#637f6a;stroke-width:0;stroke-linecap:butt;stroke-linejoin:round;stroke-miterlimit:4;stroke-opacity:1;stroke-dasharray:none" />
      <path
         inkscape:connector-curvature="0"
         d="m 184.16803,355.94626 c 2.45195,0.0692 4.90573,0.0492 7.35847,0.0443 0.4087,-9.1e-4 0.8174,-0.002 1.2261,-0.003 0,0 -12.9092,8.97406 -12.9092,8.97406 l 0,0 c -0.406,-9.2e-4 -0.81201,-0.002 -1.21801,-0.003 -2.49522,-0.006 -4.99137,-0.0235 -7.48586,0.0443 0,0 13.0285,-9.05699 13.0285,-9.05699 z"
         id="path4132"
         style="fill:#617060;fill-opacity:1;fill-rule:evenodd;stroke:#637f6a;stroke-width:0;stroke-linecap:butt;stroke-linejoin:round;stroke-miterlimit:4;stroke-opacity:1;stroke-dasharray:none" />
    </g>
    <g
       id="g4150">
      <path
         sodipodi:nodetypes="sssasssss"
         inkscape:connector-curvature="0"
         id="rect2985-3-7-2-9"
         d="m 320.58022,261.9377 83.22977,0 c 26.74046,0 53.22611,23.02476 48.26799,50.63477 0,0 -10.00398,50.44212 -18.29268,74.70134 -18.62942,54.52423 -43.47875,157.95185 -70.21921,157.95185 l -1.52246,0 c -26.74047,0 -64.76663,-130.70521 -71.43872,-157.95185 l -18.29268,-74.70134 c -6.67209,-27.24663 21.52752,-50.63477 48.26799,-50.63477 z"
         style="fill:#26291d;fill-opacity:0.8495575;fill-rule:evenodd;stroke:#899195;stroke-width:7.08640051;stroke-linecap:butt;stroke-linejoin:round;stroke-miterlimit:4;stroke-opacity:1" />
      <path
         style="fill:#617060;fill-opacity:1;fill-rule:evenodd;stroke:#637f6a;stroke-width:0;stroke-linecap:butt;stroke-linejoin:round;stroke-miterlimit:4;stroke-opacity:1;stroke-dasharray:none"
         id="path3891-6"
         d="m 357.36707,437.95467 c 2.77135,0.59549 5.61081,0.73132 8.43453,0.84408 3.11912,0.0889 6.20737,-0.0555 9.28498,0.49906 1.92632,0.4151 3.68164,1.24854 5.64522,1.56818 0.99886,0.13862 2.00663,0.17782 3.01271,0.22224 0,0 -13.62972,9.77237 -13.62972,9.77237 l 0,0 c -1.06078,-0.0859 -2.12403,-0.16827 -3.16664,-0.39572 -1.87995,-0.45137 -3.63961,-1.28484 -5.56373,-1.54726 -3.00134,-0.43721 -6.04116,-0.24568 -9.0635,-0.41885 -2.94585,-0.15288 -5.88686,-0.36622 -8.7927,-0.9011 0,0 13.83885,-9.643 13.83885,-9.643 z"
         inkscape:connector-curvature="0" />
      <path
         inkscape:connector-curvature="0"
         d="m 358.67831,378.98564 c 3.24125,-0.39602 6.50092,-0.58877 9.76187,-0.72306 3.46953,-0.25899 6.83052,0.65598 10.18962,1.36424 2.11187,0.60254 4.17142,1.26124 6.20496,2.08189 0,0 -13.93621,9.32596 -13.93621,9.32596 l 0,0 c -1.93095,-0.78907 -3.92856,-1.38319 -5.94566,-1.91238 -3.2572,-0.7326 -6.53855,-1.36603 -9.89902,-1.04118 -3.29022,0.16251 -6.59003,0.38666 -9.82831,1.02212 0,0 13.45275,-10.11759 13.45275,-10.11759 z"
         id="path4058"
         style="fill:#617060;fill-opacity:1;fill-rule:evenodd;stroke:#637f6a;stroke-width:0;stroke-linecap:butt;stroke-linejoin:round;stroke-miterlimit:4;stroke-opacity:1;stroke-dasharray:none" />
      <path
         inkscape:connector-curvature="0"
         d="m 357.50396,407.6313 c 3.35414,-0.38759 6.67723,-0.95111 10.01782,-1.44481 3.81629,-0.48832 7.6626,-0.66134 11.50644,-0.72254 3.32953,-0.0402 6.6595,-0.0468 9.98927,-0.0591 1.4902,-0.2877 0.82231,-0.0313 2.02623,-0.70759 0,0 -13.25182,10.3071 -13.25182,10.3071 l 0,0 c -1.44196,0.22388 -0.68612,0.14889 -2.26964,0.20251 -3.29255,-0.0215 -6.58543,-0.0437 -9.87761,0.0283 -3.79383,0.11545 -7.59409,0.28235 -11.35009,0.86725 -3.47116,0.53374 -6.93368,1.18175 -10.43923,1.44523 0,0 13.64863,-9.91631 13.64863,-9.91631 z"
         id="path4060"
         style="fill:#617060;fill-opacity:1;fill-rule:evenodd;stroke:#637f6a;stroke-width:0;stroke-linecap:butt;stroke-linejoin:round;stroke-miterlimit:4;stroke-opacity:1;stroke-dasharray:none" />
      <path
         inkscape:connector-curvature="0"
         d="m 388.18577,358.76767 c 3.13741,0.11031 6.27782,0.0734 9.41662,0.0797 4.53547,-0.23135 8.80729,1.24902 13.06073,2.59386 3.52448,1.3732 6.3642,2.75921 10.20758,2.25163 1.55306,-0.11575 2.85073,-0.69446 4.1688,-1.45947 0,0 -13.07138,10.37506 -13.07138,10.37506 l 0,0 c -1.46272,0.49721 -2.92646,0.90349 -4.48913,0.92682 -3.7202,-0.0564 -7.00886,-1.461 -10.42475,-2.8325 -4.19296,-1.33897 -8.43089,-2.43001 -12.88113,-2.09846 -3.21195,0.006 -6.42527,-0.0281 -9.63596,0.0797 0,0 13.64862,-9.9163 13.64862,-9.9163 z"
         id="path4062"
         style="fill:#617060;fill-opacity:1;fill-rule:evenodd;stroke:#637f6a;stroke-width:0;stroke-linecap:butt;stroke-linejoin:round;stroke-miterlimit:4;stroke-opacity:1;stroke-dasharray:none" />
      <path
         inkscape:connector-curvature="0"
         d="m 397.27668,393.99494 c 2.77172,0.0897 5.53582,-0.052 8.29274,0.2708 2.5825,0.43421 5.07718,1.28779 7.51894,2.21428 0,0 -13.73824,9.26319 -13.73824,9.26319 l 0,0 c -2.36098,-0.83056 -4.75653,-1.65413 -7.27307,-1.83091 -2.81477,-0.0994 -5.63334,-0.0627 -8.44899,-0.001 0,0 13.64862,-9.9163 13.64862,-9.9163 z"
         id="path4064"
         style="fill:#617060;fill-opacity:1;fill-rule:evenodd;stroke:#637f6a;stroke-width:0;stroke-linecap:butt;stroke-linejoin:round;stroke-miterlimit:4;stroke-opacity:1;stroke-dasharray:none" />
      <path
         inkscape:connector-curvature="0"
         d="m 331.48938,391.73249 c 3.39726,0.0904 6.79681,0.0888 10.19512,0.0832 3.2654,0.13908 6.57873,-0.30304 9.82052,0.15987 1.09173,0.21514 2.18726,0.40314 3.28721,0.56988 0,0 -13.72825,9.63877 -13.72825,9.63877 l 0,0 c -1.06128,-0.18541 -2.1195,-0.39205 -3.18883,-0.52727 -3.18719,-0.21578 -6.38985,-0.0356 -9.58184,-0.11198 -3.47472,-0.006 -6.95052,-0.005 -10.42427,0.0832 0,0 13.62034,-9.89575 13.62034,-9.89575 z"
         id="path4066"
         style="fill:#617060;fill-opacity:1;fill-rule:evenodd;stroke:#637f6a;stroke-width:0;stroke-linecap:butt;stroke-linejoin:round;stroke-miterlimit:4;stroke-opacity:1;stroke-dasharray:none" />
      <path
         inkscape:connector-curvature="0"
         d="m 338.30756,426.95976 c 3.65918,0.13021 7.32176,0.0983 10.98247,0.0755 2.61785,0.2732 5.09925,-0.45686 7.65177,-0.85298 0,0 -13.40978,10.08164 -13.40978,10.08164 l 0,0 c -2.53996,0.44396 -5.06762,0.69752 -7.65438,0.51601 -3.73008,-0.0235 -7.46173,-0.0506 -11.19042,0.0755 0,0 13.62034,-9.89575 13.62034,-9.89575 z"
         id="path4068"
         style="fill:#617060;fill-opacity:1;fill-rule:evenodd;stroke:#637f6a;stroke-width:0;stroke-linecap:butt;stroke-linejoin:round;stroke-miterlimit:4;stroke-opacity:1;stroke-dasharray:none" />
      <path
         inkscape:connector-curvature="0"
         d="m 362.04941,462.17676 c 3.21642,-0.477 6.46598,-0.70601 9.71094,-0.88969 3.16721,-0.12998 6.33674,-0.18075 9.50627,-0.20519 1.6959,-0.0383 3.35882,-0.0648 5.03327,0.20708 0,0 -13.62082,9.67882 -13.62082,9.67882 l 0,0 c -1.63935,-0.0743 -3.27846,-0.0685 -4.91945,-0.062 -3.12217,0.007 -6.24654,0.0241 -9.36393,0.21616 -3.34376,0.21851 -6.6647,0.62377 -9.9949,0.97115 0,0 13.64862,-9.9163 13.64862,-9.9163 z"
         id="path4070"
         style="fill:#617060;fill-opacity:1;fill-rule:evenodd;stroke:#637f6a;stroke-width:0;stroke-linecap:butt;stroke-linejoin:round;stroke-miterlimit:4;stroke-opacity:1;stroke-dasharray:none" />
      <path
         inkscape:connector-curvature="0"
         d="m 365.25965,486.65304 c 2.54523,-0.8406 5.18986,-1.25859 7.84837,-1.52332 1.7208,-0.11902 0.86696,-0.0704 2.56148,-0.14691 0,0 -13.47395,9.90892 -13.47395,9.90892 l 0,0 c -1.64598,0.11682 -0.81785,0.0457 -2.4843,0.21431 -2.63358,0.36238 -5.25545,0.89105 -7.70252,1.96702 0,0 13.25092,-10.42002 13.25092,-10.42002 z"
         id="path4072"
         style="fill:#617060;fill-opacity:1;fill-rule:evenodd;stroke:#637f6a;stroke-width:0;stroke-linecap:butt;stroke-linejoin:round;stroke-miterlimit:4;stroke-opacity:1;stroke-dasharray:none" />
      <path
         inkscape:connector-curvature="0"
         d="m 318.98938,347.41431 c 3.5588,0.10641 7.11973,0.0894 10.67968,0.0922 3.89774,-0.026 7.79531,-0.009 11.693,0.009 5.08654,0.10947 10.17914,-0.12618 15.25764,0.20291 4.0483,0.16357 8.15616,1.1784 12.15011,0.19001 5.45732,-3.45579 1.63372,-1.00329 -11.93562,6.57671 0,0 15.43808,-6.28362 15.43808,-6.28362 l 0,0 c -15.78525,9.5536 -9.60395,7.6319 -16.81561,9.71328 -4.05473,0.34508 -8.09559,-0.4324 -12.14295,-0.63617 -5.09479,-0.20816 -10.19658,-0.0695 -15.29453,-0.0689 -3.9056,0.017 -7.81107,0.0348 -11.71671,0.009 -3.64455,0.003 -7.28994,-0.0116 -10.93343,0.0922 0,0 13.62034,-9.89575 13.62034,-9.89575 z"
         id="path4074"
         style="fill:#617060;fill-opacity:1;fill-rule:evenodd;stroke:#637f6a;stroke-width:0;stroke-linecap:butt;stroke-linejoin:round;stroke-miterlimit:4;stroke-opacity:1;stroke-dasharray:none" />
      <path
         inkscape:connector-curvature="0"
         d="m 337.04941,316.72221 c 3.54889,0.12551 7.10099,0.0897 10.65147,0.11465 4.97364,0.28524 9.87782,1.17092 14.82631,1.70572 4.03431,0.1449 7.84812,1.51431 11.70611,2.55284 3.55834,1.3043 6.92453,3.02761 10.24611,4.83898 2.88396,1.59785 6.01748,2.12357 9.24232,1.5448 0.23776,-0.0849 2.68382,-0.94838 2.92943,-1.07423 0.45776,-0.23458 1.73429,-1.10486 1.28526,-0.85397 -22.2985,12.4591 -15.16226,9.37207 -10.56576,5.54582 1.27624,-1.27425 0.6694,-0.63946 1.82497,-1.9001 0,0 15.3845,-6.53098 15.3845,-6.53098 l 0,0 c -1.10471,1.43358 -0.50393,0.74076 -1.80975,2.07202 -0.9886,1.12369 -0.9786,1.2867 -2.27505,2.0664 -6.24957,3.75859 -12.60346,9.20565 -20.11207,10.58303 -3.46926,0.13389 -6.81001,-0.56137 -9.81549,-2.36746 -3.21615,-1.74204 -6.44909,-3.48138 -9.95989,-4.56654 -3.78159,-1.03562 -7.55499,-2.15418 -11.49287,-2.40521 -4.90164,-0.62984 -9.79291,-1.46754 -14.74714,-1.52411 -3.65571,0.0252 -7.31282,-0.008 -10.96708,0.11465 0,0 13.64862,-9.91631 13.64862,-9.91631 z"
         id="path4076"
         style="fill:#617060;fill-opacity:1;fill-rule:evenodd;stroke:#637f6a;stroke-width:0;stroke-linecap:butt;stroke-linejoin:round;stroke-miterlimit:4;stroke-opacity:1;stroke-dasharray:none" />
      <path
         inkscape:connector-curvature="0"
         d="m 392.73123,297.40403 c 3.46761,0.12006 6.93868,0.10355 10.4079,0.0941 3.61417,0.007 6.5043,1.763 9.42879,3.63621 2.73947,1.51658 5.87766,1.76281 8.93983,1.95764 2.83537,-0.16882 5.60643,-0.52915 8.31025,-1.37804 1.51129,-0.51368 2.60299,-0.24177 3.91666,-1.19953 0,0 -13.15671,10.43069 -13.15671,10.43069 l 0,0 c -1.35237,0.31275 -2.71488,0.58233 -4.04625,0.98055 -2.78206,0.66711 -5.68293,0.86747 -8.53706,0.82352 -3.29199,-0.3051 -6.59695,-0.8106 -9.45115,-2.60598 -2.70679,-1.76159 -5.4691,-3.03181 -8.79395,-2.91695 -3.55562,-0.01 -7.11279,-0.0222 -10.66694,0.0941 0,0 13.64863,-9.91631 13.64863,-9.91631 z"
         id="path4078"
         style="fill:#617060;fill-opacity:1;fill-rule:evenodd;stroke:#637f6a;stroke-width:0;stroke-linecap:butt;stroke-linejoin:round;stroke-miterlimit:4;stroke-opacity:1;stroke-dasharray:none" />
      <path
         inkscape:connector-curvature="0"
         d="m 323.2142,303.6985 c 3.32359,-1.4729 6.78361,-2.63214 10.26366,-3.67559 3.81198,-1.00639 7.71734,-1.39431 11.64524,-1.16636 4.74097,0.21442 9.30007,1.56099 13.88947,2.63436 3.74602,1.10296 7.56093,1.89184 11.42847,2.40544 0,0 -13.5147,9.51145 -13.5147,9.51145 l 0,0 c -3.83693,-0.65493 -7.61007,-1.57333 -11.36352,-2.60382 -4.55474,-1.038 -9.12009,-2.20195 -13.82111,-2.28014 -3.84022,0.0204 -7.66354,0.47587 -11.34253,1.62496 -3.53852,1.16886 -7.06084,2.37577 -10.43591,3.96972 0,0 13.25093,-10.42002 13.25093,-10.42002 z"
         id="path4080"
         style="fill:#617060;fill-opacity:1;fill-rule:evenodd;stroke:#637f6a;stroke-width:0;stroke-linecap:butt;stroke-linejoin:round;stroke-miterlimit:4;stroke-opacity:1;stroke-dasharray:none" />
      <path
         inkscape:connector-curvature="0"
         d="m 302.9585,291.72221 c 2.58534,0.27624 5.09355,-0.1805 7.63609,-0.56162 2.85579,-0.40246 5.74707,-0.43208 8.62559,-0.49257 2.78552,0.002 5.5347,0.60284 8.31181,0.85569 0.44286,0.0304 0.88572,0.0607 1.32858,0.0911 0,0 -13.59055,9.70709 -13.59055,9.70709 l 0,0 c -0.44639,-0.0418 -0.89279,-0.0835 -1.33919,-0.12526 -2.71526,-0.3044 -5.42516,-0.83691 -8.16779,-0.70153 -2.85597,0.0784 -5.71348,0.21932 -8.53837,0.67586 -2.6314,0.3667 -5.25743,0.4953 -7.91479,0.46759 0,0 13.64862,-9.91631 13.64862,-9.91631 z"
         id="path4082"
         style="fill:#617060;fill-opacity:1;fill-rule:evenodd;stroke:#637f6a;stroke-width:0;stroke-linecap:butt;stroke-linejoin:round;stroke-miterlimit:4;stroke-opacity:1;stroke-dasharray:none" />
      <path
         inkscape:connector-curvature="0"
         d="m 389.32214,343.99494 c 3.28602,0.11611 6.57529,0.08 9.86286,0.0915 3.72214,0.0285 7.44422,4e-4 11.16626,-0.0255 2.72115,0.0455 5.45966,-0.20379 8.15867,0.189 1.57606,0.064 3.29466,0.90831 4.87696,0.46413 0.27397,-0.0769 1.00314,-0.53772 0.75485,-0.39869 -4.61947,2.58678 -9.24576,5.16137 -13.86864,7.74206 0.20764,-0.14572 0.41529,-0.29143 0.62294,-0.43715 0,0 15.37883,-6.79783 15.37883,-6.79783 l 0,0 c -0.10574,0.36501 -0.21147,0.73002 -0.31721,1.09503 -15.30536,8.68996 -10.73962,9.44652 -21.05428,8.01051 -2.67007,-0.14138 -5.34608,-0.0215 -8.01892,-0.0829 -3.69866,-0.0262 -7.39736,-0.0539 -11.09612,-0.0255 -3.3716,0.0117 -6.74464,-0.0219 -10.11483,0.0915 0,0 13.64863,-9.9163 13.64863,-9.9163 z"
         id="path4084"
         style="fill:#617060;fill-opacity:1;fill-rule:evenodd;stroke:#637f6a;stroke-width:0;stroke-linecap:butt;stroke-linejoin:round;stroke-miterlimit:4;stroke-opacity:1;stroke-dasharray:none" />
      <path
         inkscape:connector-curvature="0"
         d="m 315.43275,382.34427 c 6.50281,-4.85569 13.16728,-9.93675 20.93968,-12.51297 2.4754,-0.70096 5.05306,-0.7853 7.60752,-0.83198 2.3062,-0.0173 4.61246,0.006 6.91864,0.0165 2.27065,0.01 4.54132,0.0119 6.81198,0.0132 0.37856,1.3e-4 0.75712,2.5e-4 1.13568,3.7e-4 0,0 -13.55419,9.84664 -13.55419,9.84664 l 0,0 c -0.37867,-2.6e-4 -0.75735,-5.2e-4 -1.13602,-7.8e-4 -2.27189,-0.002 -4.54379,-0.007 -6.81565,-0.0191 -2.29076,-0.0118 -4.58234,-0.0392 -6.87256,0.026 -2.45191,0.11208 -4.92419,0.31326 -7.21444,1.27532 -5.60759,2.72941 -3.12301,1.55843 11.869,-7.08137 0.37698,-0.21725 -0.72458,0.4832 -1.06861,0.74957 -0.35878,0.27778 -0.69172,0.58743 -1.03758,0.88115 -0.36056,0.2356 -0.73475,0.45156 -1.08168,0.70681 -0.2899,0.2133 -0.5502,0.46415 -0.8253,0.69622 0,0 -15.67647,6.2343 -15.67647,6.2343 z"
         id="path4086"
         style="fill:#617060;fill-opacity:1;fill-rule:evenodd;stroke:#637f6a;stroke-width:0;stroke-linecap:butt;stroke-linejoin:round;stroke-miterlimit:4;stroke-opacity:1;stroke-dasharray:none" />
      <path
         inkscape:connector-curvature="0"
         d="m 391.59486,428.08585 c 3.36965,0.20947 6.7056,0.10922 10.04994,-0.31485 1.57622,-0.37944 3.0623,-0.20648 4.62029,0.0949 0,0 -13.62966,9.62821 -13.62966,9.62821 l 0,0 c -1.44826,-0.096 -2.8725,-0.0659 -4.31141,0.17578 -3.45446,0.30878 -6.91383,0.22487 -10.37778,0.33227 0,0 13.64862,-9.9163 13.64862,-9.9163 z"
         id="path4088"
         style="fill:#617060;fill-opacity:1;fill-rule:evenodd;stroke:#637f6a;stroke-width:0;stroke-linecap:butt;stroke-linejoin:round;stroke-miterlimit:4;stroke-opacity:1;stroke-dasharray:none" />
      <path
         inkscape:connector-curvature="0"
         d="m 374.54941,503.08585 c 2.33179,-0.0772 4.62605,-0.66019 6.96875,-0.84543 2.78009,-0.72671 5.66493,-1.00301 8.52431,-1.223 1.7774,-0.0987 0.89792,-0.0579 2.63841,-0.12339 0,0 -13.48016,9.88641 -13.48016,9.88641 l 0,0 c -1.69866,0.0885 -0.84102,0.0353 -2.57284,0.16064 -2.8648,0.27436 -5.6888,0.76106 -8.52009,1.25951 -2.39738,0.3167 -4.77727,0.83692 -7.207,0.80156 0,0 13.64862,-9.9163 13.64862,-9.9163 z"
         id="path4134"
         style="fill:#617060;fill-opacity:1;fill-rule:evenodd;stroke:#637f6a;stroke-width:0;stroke-linecap:butt;stroke-linejoin:round;stroke-miterlimit:4;stroke-opacity:1;stroke-dasharray:none" />
      <path
         inkscape:connector-curvature="0"
         d="m 354.09486,500.81312 c 2.55277,-0.26112 4.80637,0.71741 7.18246,1.44686 1.42986,0.30243 2.78901,0.87874 4.02128,1.65273 0,0 -14.09086,9.16094 -14.09086,9.16094 l 0,0 c -1.20079,-0.6017 -2.45882,-1.06088 -3.76206,-1.39288 -2.30899,-0.7392 -4.5465,-1.25967 -6.99944,-0.95134 0,0 13.64862,-9.91631 13.64862,-9.91631 z"
         id="path4140"
         style="fill:#617060;fill-opacity:1;fill-rule:evenodd;stroke:#637f6a;stroke-width:0;stroke-linecap:butt;stroke-linejoin:round;stroke-miterlimit:4;stroke-opacity:1;stroke-dasharray:none" />
      <path
         inkscape:connector-curvature="0"
         d="m 338.30756,453.09612 c 3.25051,0.0144 6.45726,0.0523 9.68243,0.46366 0,0 -13.55645,9.61557 -13.55645,9.61557 l 0,0 c -3.24087,-0.32689 -6.49259,-0.30167 -9.74632,-0.18347 0,0 13.62034,-9.89576 13.62034,-9.89576 z"
         id="path4142"
         style="fill:#617060;fill-opacity:1;fill-rule:evenodd;stroke:#637f6a;stroke-width:0;stroke-linecap:butt;stroke-linejoin:round;stroke-miterlimit:4;stroke-opacity:1;stroke-dasharray:none" />
      <path
         inkscape:connector-curvature="0"
         d="m 307.50396,328.08585 c 2.67002,0.0695 5.34191,0.0607 8.01275,0.0627 2.73163,-0.21593 5.39085,0.40488 8.08101,0.75772 1.61597,0.44209 0.81596,0.22818 2.39988,0.64233 0,0 -13.7801,9.49885 -13.7801,9.49885 l 0,0 c -1.52784,-0.37399 -0.76387,-0.20893 -2.29158,-0.49664 -2.61795,-0.39201 -5.22582,-0.7782 -7.88533,-0.61128 -2.72837,0.002 -5.45766,-0.005 -8.18526,0.0627 0,0 13.64863,-9.9163 13.64863,-9.9163 z"
         id="path4144"
         style="fill:#617060;fill-opacity:1;fill-rule:evenodd;stroke:#637f6a;stroke-width:0;stroke-linecap:butt;stroke-linejoin:round;stroke-miterlimit:4;stroke-opacity:1;stroke-dasharray:none" />
      <path
         inkscape:connector-curvature="0"
         d="m 422.27668,328.08585 c 2.56865,0.0758 5.13924,0.0539 7.70872,0.0485 0.36772,-0.0761 0.73544,-0.15229 1.10316,-0.22843 0,0 -13.43291,10.00435 -13.43291,10.00435 l 0,0 c -0.39514,0.0145 -0.79028,0.029 -1.18542,0.0434 -2.614,-0.006 -5.22895,-0.0257 -7.84217,0.0485 0,0 13.64862,-9.9163 13.64862,-9.9163 z"
         id="path4146"
         style="fill:#617060;fill-opacity:1;fill-rule:evenodd;stroke:#637f6a;stroke-width:0;stroke-linecap:butt;stroke-linejoin:round;stroke-miterlimit:4;stroke-opacity:1;stroke-dasharray:none" />
      <path
         inkscape:connector-curvature="0"
         d="m 356.36759,275.81312 c 3.14738,0.0834 6.21434,1.09831 9.09695,2.30115 2.89193,1.31695 5.78377,2.64232 8.64218,4.033 2.46388,1.2542 5.24538,1.44577 7.95714,1.61191 1.73586,0.0818 3.47401,0.0759 5.21126,0.0879 0,0 -13.51555,9.80613 -13.51555,9.80613 l 0,0 c -1.75913,-0.0109 -3.51922,-0.0419 -5.27274,-0.19774 -2.86336,-0.29102 -5.74797,-0.69615 -8.3031,-2.11838 -2.82466,-1.34766 -5.60748,-2.78573 -8.50286,-3.97387 -2.8779,-1.04941 -5.86549,-1.892 -8.9619,-1.63381 0,0 13.64862,-9.91631 13.64862,-9.91631 z"
         id="path4148"
         style="fill:#617060;fill-opacity:1;fill-rule:evenodd;stroke:#637f6a;stroke-width:0;stroke-linecap:butt;stroke-linejoin:round;stroke-miterlimit:4;stroke-opacity:1;stroke-dasharray:none" />
    </g>
    <path
       sodipodi:type="arc"
       style="fill:#0dd000;fill-opacity:1;fill-rule:evenodd;stroke:#253128;stroke-width:7.17500019;stroke-linecap:butt;stroke-linejoin:round;stroke-miterlimit:4;stroke-opacity:1;stroke-dasharray:none"
       id="path3853-2"
       sodipodi:cx="228.97728"
       sodipodi:cy="635.31671"
       sodipodi:rx="16.477272"
       sodipodi:ry="22.727272"
       d="m 245.45455,635.31671 a 16.477272,22.727272 0 1 1 -32.95454,0 16.477272,22.727272 0 1 1 32.95454,0 z"
       transform="translate(151.70454,1.1363802)" />
  </g>
</svg>
